<svg width="84" height="63" viewBox="0 0 84 63" fill="none" xmlns="http://www.w3.org/2000/svg">
<path d="M20.2054 42.1579C31.3645 42.1579 40.4108 32.7205 40.4108 21.0789C40.4108 9.43737 31.3645 0 20.2054 0C9.04627 0 0 9.43737 0 21.0789C0 32.7205 9.04627 42.1579 20.2054 42.1579Z" fill="black"/>
<path d="M29.0595 21.0789C29.0595 26.1803 25.0954 30.3158 20.2054 30.3158C15.3154 30.3158 11.3513 26.1803 11.3513 21.0789C11.3513 15.9776 15.3154 11.8421 20.2054 11.8421C25.0954 11.8421 29.0595 15.9776 29.0595 21.0789Z" fill="#454646"/>
<path d="M30.6486 20.8421C30.6486 26.9899 25.8714 31.9737 19.9784 31.9737C14.0853 31.9737 9.30811 26.9899 9.30811 20.8421C9.30811 14.6943 14.0853 9.71051 19.9784 9.71051C25.8714 9.71051 30.6486 14.6943 30.6486 20.8421Z" stroke="#5B5B5B"/>
<path d="M32.9189 21.079C32.9189 28.4001 27.129 34.3421 19.9784 34.3421C12.8278 34.3421 7.03784 28.4001 7.03784 21.079C7.03784 13.7578 12.8278 7.8158 19.9784 7.8158C27.129 7.8158 32.9189 13.7578 32.9189 21.079Z" stroke="#5B5B5B"/>
<path d="M35.6433 21.079C35.6433 29.9737 28.7315 37.1842 20.2054 37.1842C11.6793 37.1842 4.76758 29.9737 4.76758 21.079C4.76758 12.1843 11.6793 4.97369 20.2054 4.97369C28.7315 4.97369 35.6433 12.1843 35.6433 21.079Z" stroke="#5B5B5B"/>
<path d="M37.0054 21.079C37.0054 30.7555 29.385 38.6053 19.9784 38.6053C10.5718 38.6053 2.95135 30.7555 2.95135 21.079C2.95135 11.4024 10.5718 3.55264 19.9784 3.55264C29.385 3.55264 37.0054 11.4024 37.0054 21.079Z" stroke="#5B5B5B"/>
<path d="M27.2432 21.079C27.2432 25.1339 24.0923 28.4211 20.2054 28.4211C16.3185 28.4211 13.1676 25.1339 13.1676 21.079C13.1676 17.024 16.3185 13.7368 20.2054 13.7368C24.0923 13.7368 27.2432 17.024 27.2432 21.079Z" fill="#0074FD"/>
<path d="M15.4814 17.712C15.4669 17.5225 15.4342 17.3823 15.3833 17.2914C15.3325 17.1928 15.2744 17.117 15.209 17.064C15.1436 17.0261 15.0746 16.9996 15.0019 16.9844C14.9366 16.9617 14.813 16.9503 14.6314 16.9503L14.5769 16.9048L14.5443 16.7002L14.566 16.6547C14.6169 16.6547 14.6895 16.6585 14.784 16.6661C14.8784 16.6737 14.9801 16.6812 15.0891 16.6888C15.1981 16.6964 15.3034 16.704 15.4051 16.7116C15.5141 16.7191 15.6086 16.7229 15.6885 16.7229H16.3096C16.4041 16.7229 16.5203 16.7229 16.6583 16.7229C16.8036 16.7154 16.9489 16.7078 17.0942 16.7002C17.2468 16.6926 17.3921 16.6888 17.5301 16.6888C17.6754 16.6812 17.7916 16.6775 17.8788 16.6775C18.4455 16.6775 18.9504 16.7798 19.3935 16.9844C19.844 17.1815 20.2217 17.4505 20.5269 17.7916C20.832 18.1326 21.0645 18.5305 21.2243 18.9853C21.3914 19.44 21.4749 19.9213 21.4749 20.429C21.4749 20.9293 21.395 21.4067 21.2352 21.8615C21.0826 22.3086 20.8538 22.7065 20.5487 23.0551C20.2435 23.3962 19.8621 23.669 19.4044 23.8737C18.9468 24.0783 18.4164 24.1806 17.8134 24.1806C17.7481 24.1806 17.65 24.1768 17.5192 24.1693C17.3884 24.1693 17.2504 24.1693 17.1051 24.1693C16.9598 24.1693 16.8182 24.1655 16.6801 24.1579C16.5494 24.1579 16.444 24.1579 16.3641 24.1579H15.7865C15.7357 24.1579 15.6521 24.1617 15.5359 24.1693C15.4197 24.1768 15.2998 24.1844 15.1763 24.192C15.0528 24.1996 14.9329 24.2071 14.8167 24.2147C14.7004 24.2223 14.6169 24.2261 14.566 24.2261L14.5443 24.1806L14.5769 23.976L14.6314 23.9305C14.7186 23.9305 14.8203 23.9267 14.9366 23.9191C15.0528 23.904 15.1436 23.8737 15.209 23.8282C15.2671 23.7827 15.3216 23.7107 15.3724 23.6122C15.4233 23.5137 15.4596 23.3659 15.4814 23.1688C15.4814 23.1158 15.4814 23.0551 15.4814 22.9869C15.4887 22.9111 15.4923 22.8202 15.4923 22.7141C15.4996 22.608 15.5032 22.4791 15.5032 22.3276C15.5032 22.176 15.5032 21.9865 15.5032 21.7591V19.4514C15.5032 19.3756 15.5032 19.2619 15.5032 19.1103C15.5032 18.9511 15.5032 18.7844 15.5032 18.6101C15.5032 18.4358 15.4996 18.2653 15.4923 18.0985C15.4923 17.9318 15.4887 17.8029 15.4814 17.712ZM17.8897 23.6122C18.3256 23.6122 18.7107 23.5288 19.0448 23.3621C19.379 23.1954 19.6587 22.9718 19.8839 22.6914C20.1164 22.4034 20.2908 22.0661 20.407 21.6796C20.5305 21.293 20.5923 20.8762 20.5923 20.429C20.5923 19.9743 20.5305 19.5537 20.407 19.1671C20.2835 18.7806 20.1019 18.4471 19.8621 18.1667C19.6297 17.8863 19.3427 17.6665 19.0012 17.5074C18.6598 17.3482 18.2711 17.2686 17.8352 17.2686H16.3314C16.3169 17.4884 16.306 17.6741 16.2987 17.8257C16.2987 17.9697 16.2951 18.1175 16.2878 18.269C16.2806 18.4206 16.2769 18.5874 16.2769 18.7693C16.2769 18.9436 16.2769 19.1671 16.2769 19.44V21.5318C16.2769 21.9865 16.2769 22.3427 16.2769 22.6004C16.2842 22.8505 16.2951 23.04 16.3096 23.1688C16.3314 23.3659 16.3786 23.4909 16.4513 23.544C16.5239 23.5895 16.6547 23.6122 16.8436 23.6122H17.8897ZM25.0985 16.7002L25.0658 16.9048L25.0222 16.9503C24.9059 16.9503 24.7933 16.9579 24.6844 16.973C24.5827 16.9806 24.4991 17.0109 24.4337 17.064C24.3756 17.117 24.3211 17.1853 24.2703 17.2686C24.2194 17.352 24.1867 17.4998 24.1722 17.712C24.1649 17.8181 24.1577 17.9166 24.1504 18.0076C24.1504 18.0985 24.1468 18.2046 24.1395 18.3259C24.1395 18.4471 24.1395 18.5949 24.1395 18.7693C24.1395 18.9436 24.1395 19.1671 24.1395 19.44V21.5318C24.1395 21.8046 24.1395 22.0358 24.1395 22.2253C24.1395 22.4071 24.1359 22.5625 24.1286 22.6914C24.1286 22.8202 24.1286 22.9339 24.1286 23.0324C24.1286 23.1234 24.1286 23.2105 24.1286 23.2939C24.1286 23.597 24.0959 23.8964 24.0305 24.192C23.9651 24.4876 23.8707 24.7528 23.7472 24.9878C23.631 25.2303 23.482 25.4311 23.3004 25.5903C23.1261 25.7495 22.9263 25.8518 22.7011 25.8973C22.6429 25.9124 22.5776 25.92 22.5049 25.92C22.4323 25.9276 22.3669 25.9314 22.3088 25.9314L22.2216 25.8973L22.1998 25.6471L22.2434 25.5903C22.3378 25.5903 22.4214 25.5865 22.494 25.5789C22.5667 25.5789 22.6393 25.5638 22.712 25.5335C22.7991 25.4804 22.8827 25.4122 22.9626 25.3288C23.166 25.1166 23.2822 24.7225 23.3113 24.1465C23.3476 23.5705 23.3658 22.7747 23.3658 21.7591V19.4514C23.3658 19.1861 23.3658 18.9625 23.3658 18.7806C23.3658 18.5987 23.3622 18.4434 23.3549 18.3145C23.3549 18.1857 23.3513 18.0758 23.344 17.9848C23.344 17.8939 23.3404 17.8029 23.3331 17.712C23.3186 17.5074 23.2859 17.3634 23.235 17.28C23.1842 17.189 23.1297 17.117 23.0716 17.064C23.0062 17.0109 22.9226 16.9806 22.8209 16.973C22.7192 16.9579 22.6102 16.9503 22.494 16.9503L22.4395 16.9048L22.4068 16.7002L22.4286 16.6547C22.4795 16.6547 22.563 16.6585 22.6793 16.6661C22.7955 16.6737 22.9154 16.6812 23.0389 16.6888C23.1624 16.6964 23.2822 16.704 23.3985 16.7116C23.5147 16.7191 23.5983 16.7229 23.6491 16.7229H23.8562C23.907 16.7229 23.9906 16.7191 24.1068 16.7116C24.223 16.704 24.3429 16.6964 24.4664 16.6888C24.5899 16.6812 24.7098 16.6737 24.826 16.6661C24.9423 16.6585 25.0258 16.6547 25.0767 16.6547L25.0985 16.7002Z" fill="#F8F8F8"/>
<path d="M30.2849 19.1445C30.5652 18.9208 30.8569 18.5703 31.1902 18.4343C31.4437 18.3307 31.771 18.1621 31.9758 17.9735C32.1749 17.7903 32.3758 17.6198 32.6322 17.5306C33.8617 17.1031 35.0169 16.49 36.136 15.7895C36.2365 15.7266 36.3354 15.6591 36.4386 15.6011C36.5949 15.5134 36.1172 15.7589 35.9604 15.8455C35.4854 16.1078 35.0096 16.3579 34.5476 16.6448C33.9242 17.0318 33.2625 17.1868 32.5688 17.3677C32.083 17.4944 31.637 17.6178 31.1902 17.8386C31.0343 17.9156 30.8917 18.0395 30.7485 18.139C30.626 18.2242 30.4175 18.3646 30.3288 18.4572" stroke="black" stroke-width="3" stroke-linecap="round"/>
<path d="M30.1531 23.9096C30.7588 24.0483 31.2859 24.3912 31.8465 24.6784C32.1576 24.8377 32.4445 25.0027 32.7664 25.1263C32.9955 25.2144 33.1796 25.4004 33.4081 25.4878C33.6853 25.5939 33.9899 25.6239 34.2719 25.722C34.7745 25.8968 35.4213 26.1791 35.9604 26.0987C36.4101 26.0317 36.6816 25.6922 36.7973 25.2409C36.8767 24.9309 36.9817 24.4517 36.9071 24.1285C36.8931 24.0678 36.5253 24.5169 36.4923 24.5587C36.4843 24.5688 36.2591 24.8141 36.4239 24.7598C36.753 24.6514 37.0486 24.4169 37.2975 24.1743C37.4945 23.9823 36.9863 24.1393 36.9266 24.1463C36.1028 24.2432 35.2767 24.3108 34.4475 24.322C33.8477 24.3301 34.5017 24.3187 34.694 24.3322C34.8041 24.3399 35.0291 24.3477 35.143 24.4213C35.2362 24.4815 35.1229 24.5654 35.1844 24.6122C35.2775 24.683 35.8846 24.5456 35.8945 24.6351C35.9103 24.7782 35.7032 24.8443 35.5943 24.9329C35.3509 25.1313 35.1006 25.3211 34.8526 25.5133" stroke="black" stroke-width="3" stroke-linecap="round"/>
<path d="M34.8526 25.5133C35.0438 25.2701 35.1796 25.0177 35.4675 24.9176" stroke="black" stroke-width="3" stroke-linecap="round"/>
<path d="M35.5992 24.7802C35.5314 24.7802 34.6045 24.8326 34.6159 24.7064C34.6447 24.3861 35.3267 24.051 35.5553 23.9147C35.9551 23.6764 35.209 23.9958 35.143 24.0165C35.0206 24.0549 34.755 24.1674 34.6134 24.1285C34.4692 24.0889 34.8733 23.9738 35.0112 23.9147C35.5573 23.6806 36.1101 23.4603 36.6728 23.2732C36.8643 23.2096 36.2808 23.3952 36.0799 23.3878C35.9672 23.3836 35.9431 23.3587 36.0628 23.2936C36.3969 23.1117 36.8029 23.0097 37.1657 22.9169C37.2688 22.8905 37.3724 22.8633 37.478 22.8532C37.684 22.8337 37.5763 22.9219 37.4732 22.9932C37.1848 23.1925 36.8455 23.3173 36.5216 23.4361C36.0741 23.6004 36.5055 23.3787 36.6387 23.3012C36.9222 23.1363 36.712 23.3015 36.5703 23.3496C36.484 23.3789 35.66 23.5417 35.6895 23.3445C35.7135 23.1842 36.1616 23.0387 36.258 22.9932C36.3865 22.9326 36.7647 22.7613 36.624 22.7718C35.5958 22.8484 34.5867 23.1054 33.5496 23.1358C33.4495 23.1387 33.3421 23.1577 33.2495 23.118C33.2188 23.1048 33.2719 23.0461 33.3007 23.0289C33.6851 22.799 34.1821 22.661 34.611 22.5605C34.6855 22.543 34.7649 22.5072 34.8379 22.53C34.874 22.5411 34.7839 22.5866 34.7501 22.6038C34.4232 22.7699 34.0444 22.8571 33.6863 22.9067C33.5868 22.9204 33.4864 22.9273 33.3861 22.9296C33.3186 22.9311 33.1074 22.9347 33.3105 22.866C33.7092 22.7309 34.1449 22.6745 34.5549 22.591C34.5578 22.5905 35.2043 22.4583 35.282 22.4485C35.3112 22.4448 35.3766 22.4263 35.3699 22.4561C35.3342 22.6142 35.0992 22.6187 34.9551 22.6801C34.4674 22.8878 33.9639 22.9699 33.4666 23.1307C33.1961 23.2181 32.888 23.5898 32.6834 23.7874C32.5146 23.9505 32.2061 23.9712 32.0344 23.8027C31.7426 23.5162 31.4066 23.1889 31.2511 22.7998C31.0993 22.4197 30.848 22.1354 30.7973 21.7103C30.7579 21.3801 30.768 21.0444 30.768 20.7124C30.768 20.5318 30.681 21.0623 30.6363 21.2369C30.4935 21.7942 30.2004 22.3746 30.1531 22.9525C30.1511 22.9771 30.1572 23.0425 30.1727 23.0238C30.2467 22.9336 30.2745 22.6866 30.2947 22.5936C30.461 21.8259 30.6407 21.0521 30.729 20.2695C30.7569 20.0222 30.7459 19.7725 30.7729 19.5262C30.783 19.4338 30.8908 19.4749 30.9535 19.4856C31.1897 19.5256 31.5297 19.5861 31.6415 19.8419C31.8711 20.367 31.8827 21.0118 32.0514 21.5627C32.1369 21.8416 32.2871 22.4923 32.6224 22.0539C33.2591 21.2216 33.5505 19.8453 33.1836 18.8339C33.054 18.4766 32.8727 18.5054 32.6322 18.7321C32.4226 18.9295 31.8572 19.476 31.9978 19.8292C32.2093 20.3608 33.222 19.531 33.3837 19.3685C33.536 19.2154 33.9184 18.8108 33.901 18.5386C33.8849 18.2862 33.4324 18.699 33.2373 18.8492C33.0484 18.9945 30.9951 20.7496 31.6586 20.9416C32.0011 21.0407 32.7143 20.8642 32.9738 20.7965C33.8143 20.5773 34.6051 20.2404 35.3162 19.7197C35.62 19.4973 36.1017 18.9248 35.3943 19.4372C34.7984 19.8688 34.2297 20.3531 33.696 20.8652C33.4792 21.0732 32.8741 21.6405 33.1666 21.6034C33.38 21.5763 33.924 21.2462 34.0132 21.1936C34.6636 20.8097 35.283 20.3768 35.8725 19.8979C36.0738 19.7344 36.2544 19.544 36.4581 19.3837C36.4854 19.3623 36.5211 19.3203 36.5509 19.3379C36.6737 19.4104 36.5449 19.634 36.5167 19.7783C36.3632 20.5643 36.0182 21.369 35.9799 22.1736C35.961 22.5696 36.9371 21.6068 37.0291 21.5169C37.1256 21.4225 37.195 21.3499 37.278 21.2521C37.3657 21.1487 37.1088 21.4646 37.0267 21.5728C36.8764 21.7708 36.5891 22.1177 36.9754 21.7052C37.1352 21.5345 38.0785 20.5331 37.6342 20.2874C37.1943 20.0441 36.1455 20.2564 35.7359 20.2899C35.3418 20.3221 34.9485 20.3637 34.5549 20.4019C34.1969 20.4367 33.8402 20.4872 33.4813 20.5088C33.2905 20.5203 33.0897 20.5628 32.9079 20.5012C32.6736 20.4219 33.2353 20.1054 33.4472 19.9743C33.9242 19.679 34.4286 19.3741 34.9356 19.1343C35.2866 18.9682 34.7089 20.2603 34.6915 20.3077C34.5467 20.7046 33.8956 22.1306 34.9356 21.8936C35.8299 21.6898 36.4757 20.6858 36.8119 19.8877C37.2315 18.8919 37.4101 17.6423 36.1312 17.2913C35.6608 17.1623 34.7666 17.2786 34.2865 17.4033C33.7493 17.5429 33.8468 17.7019 34.2596 17.6961C34.5511 17.6919 34.7951 17.6462 35.0795 17.5815C35.2439 17.5441 35.5635 17.3841 35.7456 17.388C35.8003 17.3892 35.7161 17.5011 35.6822 17.5459C35.4364 17.871 35.1334 18.1475 34.8404 18.4241C34.749 18.5103 34.6515 18.5899 34.5647 18.6811C34.4951 18.7542 34.386 18.8633 34.5744 18.8339C34.9466 18.7758 35.3363 18.5956 35.6749 18.4343C35.9154 18.3195 36.5968 17.8942 36.3751 18.0448C36.2682 18.1174 36.0281 18.2294 36.341 18.1491C36.4283 18.1267 36.9161 17.9355 36.6972 18.2229C36.4217 18.5849 35.9888 18.7764 35.5992 18.9612" stroke="black" stroke-width="3" stroke-linecap="round"/>
<path d="M33.2143 21.3647C33.0475 21.7525 32.7472 22.1902 32.6759 22.6119C32.6534 22.7449 32.706 22.9201 32.6242 23.034C32.6109 23.0525 32.6036 23.0877 32.5816 23.0975C32.4397 23.1609 32.6176 22.7612 32.7124 22.6341C33.3194 21.8209 34.1549 21.1724 34.8875 20.4951C35.4497 19.9754 36.1344 19.3528 36.658 18.775C38.3001 16.9631 36.2659 19.1532 37.4307 17.7087" stroke="black" stroke-width="3" stroke-linecap="round"/>
<path d="M36.226 16.3948C35.9009 16.5793 35.7087 16.8049 35.6298 17.1945C35.5961 17.361 35.5951 17.6002 35.7819 17.6706C36.0259 17.7625 36.6656 17.6076 36.8162 17.3659C36.8835 17.2579 36.6822 17.253 36.6398 17.2517C36.3097 17.2415 36.6103 16.9651 36.7189 16.8518" stroke="black" stroke-width="3" stroke-linecap="round"/>
<path d="M37.2117 16.4519C37.0194 16.7715 36.8418 17.095 36.6641 17.4231" stroke="black" stroke-width="3" stroke-linecap="round"/>
<path d="M11.9133 28.6156C11.4818 28.6156 11.0758 28.7104 10.6544 28.8104C10.4286 28.864 9.82556 29.1111 9.96777 28.9204C10.0787 28.7717 10.4441 28.7228 10.6063 28.6188C10.7138 28.5498 10.8909 28.5085 10.6424 28.5842C9.94035 28.7981 9.22544 28.8361 8.498 28.8419C8.19192 28.8443 7.83331 28.7903 7.52823 28.8481C7.40414 28.8717 7.3294 28.9915 7.19995 29.0084C6.94968 29.041 6.76161 29.1812 6.49217 29.1812C6.22101 29.1812 5.96611 29.2756 5.70312 29.3383C5.29556 29.4355 4.88836 29.3917 4.54056 29.6336" stroke="black" stroke-width="3" stroke-linecap="round"/>
<path d="M15.3829 31.1041C15.2135 32.0317 15.3484 32.9589 15.0576 33.869C14.9864 34.092 14.9117 34.2867 14.895 34.5225C14.8797 34.7382 14.7324 34.8707 14.7324 35.0944C14.7324 35.7058 14.7404 36.318 14.7324 36.9293C14.7274 37.3063 14.5902 37.6405 14.5697 38.0038C14.5615 38.149 14.2875 37.8241 14.2625 37.7996C14.019 37.561 13.7109 37.1618 13.347 37.1618C13.1064 37.1618 12.861 37.2352 12.8349 37.5137C12.8204 37.669 12.2531 37.1229 12.1693 37.0518C11.5553 36.5307 10.8419 36.2344 10.2026 35.7479C9.50874 35.2199 8.81536 34.6754 8.11852 34.1581C7.53361 33.7239 7.07079 33.0695 6.5524 32.5557C6.3038 32.3093 3.94281 30.2563 5.04049 29.8473C5.32545 29.7411 5.62477 29.7421 5.62477 30.0987C5.62477 30.2406 5.57854 30.4888 5.65487 30.6139C5.73596 30.7469 6.16736 30.7585 6.29036 30.7585C6.65025 30.7585 6.91746 30.3168 7.0885 30.0421C7.15157 29.9408 7.20501 29.8436 7.19389 29.7216C7.19252 29.7065 7.16601 29.5434 7.1186 29.6211C6.88531 30.0036 7.9972 30.9819 8.26909 31.1732C8.76559 31.5225 9.22092 32.1246 9.61236 32.5934C9.92261 32.965 10.2952 33.2818 10.6393 33.6177C10.9692 33.9395 11.3143 34.2404 11.6483 34.5571C11.8646 34.7622 12.0667 34.9702 12.3229 35.1195C12.4659 35.2029 12.5688 35.3892 12.7386 35.4023C13.1357 35.433 13.5048 35.7416 13.892 35.7416C14.2943 35.7416 14.5585 35.1075 14.6781 34.7865C14.8965 34.2006 14.3827 33.9859 14.124 33.536C13.9772 33.2808 13.7037 33.0536 13.5036 32.8448C13.058 32.38 12.5281 32.0783 11.9675 31.7859C11.477 31.53 10.9624 31.2154 10.5611 30.8213C10.3873 30.6507 9.85328 30.3304 9.85328 30.0295C9.85328 29.5444 12.254 29.5771 12.6121 29.5771C13.1893 29.5771 13.5103 29.8366 13.9101 30.2746C14.1025 30.4854 14.2128 30.6516 14.5155 30.6516" stroke="black" stroke-width="3" stroke-linecap="round"/>
<path d="M13.3002 12.2568C13.0205 11.553 12.1737 11.2919 11.5663 10.924C11.0595 10.617 10.5813 10.2765 10.0823 9.9512C9.47566 9.55563 8.7444 9.29221 8.22937 8.75491" stroke="black" stroke-width="3" stroke-linecap="round"/>
<path d="M7.7294 8.23334L8.22936 8.75491" stroke="black" stroke-width="3" stroke-linecap="round"/>
<path d="M16.157 10.8412C16.1725 10.5031 16.2595 10.3866 16.4586 10.154C16.6474 9.93345 16.629 9.58591 16.6966 9.31373C16.8499 8.69718 16.7914 8.07765 16.9426 7.45513C17.2791 6.07051 17.8711 4.75134 17.8711 3.3158" stroke="black" stroke-width="3" stroke-linecap="round"/>
<path d="M17.8711 3.3158C17.4367 3.67293 17.2616 3.93818 16.6848 3.99051C16.0312 4.04979 15.3045 4.31973 14.6731 4.50793C13.3844 4.89203 12.1746 5.50147 11.0465 6.26301C10.5202 6.61827 9.76633 6.85384 9.3165 7.28958C8.8886 7.70415 8.67283 7.8724 9.0467 8.39895C9.42061 8.92554 10.2212 8.67174 10.6259 8.33685C11.948 7.24292 13.3338 6.36391 15.0024 5.96497C15.3838 5.87379 15.7578 5.76351 16.1412 5.68351C16.2747 5.65565 16.6813 5.50256 16.7998 5.5676C17.204 5.78952 15.85 7.25803 15.7563 7.52964C15.5056 8.25623 14.847 8.88357 14.1493 9.05296C13.9266 9.10701 12.1871 9.52864 12.3717 9.91393C12.4966 10.1746 13.1844 9.99053 13.3558 9.91393C14.2859 9.49809 14.9316 8.63446 16.0063 8.75904C16.464 8.8121 15.4615 10.1049 15.3397 10.2782C15.0598 10.6763 14.649 11.0351 14.3001 11.3627C14.196 11.4604 14.0266 11.6518 13.9113 11.7187C13.5563 11.9244 14.0138 11.8843 14.2287 11.8843" stroke="black" stroke-width="3" stroke-linecap="round"/>
<path d="M29.698 30.3454C29.3669 30.9671 29.0642 31.7369 28.7898 32.6546C28.525 33.5724 28.2743 34.579 28.0378 35.6744C27.8014 36.7697 27.5743 37.9194 27.3568 39.1234C27.1487 40.3175 26.95 41.5214 26.7608 42.7352C26.5905 43.8503 26.3777 44.9803 26.1223 46.125C25.8669 47.2599 25.5453 48.3158 25.1574 49.2925C24.7318 50.319 24.2351 51.0442 23.6676 51.4686C23.1095 51.8931 22.4473 52.1053 21.6811 52.1053H20.7446V51.2024H21.7662C22.75 51.2024 23.2419 50.778 23.2419 49.9292C23.2419 49.4361 23.1426 48.7203 22.9439 47.7829C22.7547 46.8454 22.5135 45.8191 22.2203 44.704C21.9365 43.579 21.6291 42.4194 21.298 41.2253C20.9669 40.0312 20.6736 38.9309 20.4183 37.9244C20.2101 37.1546 19.9737 36.2813 19.7088 35.3043C19.4534 34.3174 19.2358 33.3997 19.0561 32.551H18.8291C18.6493 33.222 18.4933 33.9079 18.3608 34.6086C18.2284 35.2993 18.0865 36.0691 17.9351 36.9178C17.7932 37.7665 17.6277 38.7188 17.4385 39.7747C17.2588 40.8207 17.0412 42.0099 16.7858 43.3421C16.5777 44.4573 16.3365 45.4835 16.0622 46.4211C15.7973 47.3586 15.4709 48.3158 15.0831 49.2925C14.6574 50.319 14.1608 51.0442 13.5932 51.4686C13.0351 51.8931 12.3683 52.1053 11.5926 52.1053H10.6561V51.2024H11.6777C12.6615 51.2024 13.1534 50.778 13.1534 49.9292C13.1534 49.4555 13.0682 48.7255 12.898 47.7384C12.7277 46.7516 12.5196 45.6563 12.2736 44.4523C12.0277 43.2484 11.7628 42.0148 11.479 40.7516C11.2047 39.4885 10.9635 38.3438 10.7554 37.3174C10.6513 36.8437 10.5284 36.2862 10.3865 35.6447C10.2446 34.9934 10.0649 34.3125 9.8473 33.602C9.62972 32.8816 9.37904 32.1612 9.09525 31.4408C8.82096 30.7105 8.5088 30.0296 8.15881 29.398C7.46824 28.1645 6.58851 27.5477 5.51958 27.5477C4.72498 27.5477 4.12433 27.7747 3.71757 28.2287C3.31082 28.6826 3.10744 29.2549 3.10744 29.9458C3.10744 30.6365 3.24933 31.1546 3.53311 31.5C3.82635 31.8355 4.20474 32.0033 4.66823 32.0033C5.05608 32.0033 5.36824 31.8849 5.60476 31.648C5.84123 31.4013 5.95946 31.0855 5.95946 30.7007C5.95946 30.2566 5.82229 29.9556 5.548 29.7977C5.27366 29.63 5.00404 29.5461 4.73919 29.5461V28.6431C5.35407 28.6431 5.86488 28.8208 6.27163 29.176C6.67837 29.5313 6.88174 30.0395 6.88174 30.7007C6.88174 31.352 6.66892 31.8849 6.24325 32.2994C5.81757 32.7138 5.29255 32.9211 4.66823 32.9211C3.85473 32.9211 3.22095 32.6595 2.7669 32.1365C2.31284 31.6037 2.08582 30.8832 2.08582 29.9753C2.08582 28.949 2.42162 28.1398 3.09325 27.5477C3.76487 26.9457 4.59258 26.6447 5.57633 26.6447C6.64527 26.6447 7.54865 26.9063 8.28649 27.4293C9.03377 27.9523 9.68175 28.6678 10.2304 29.5757C10.7885 30.4836 11.2709 31.5444 11.6777 32.7582C12.0845 33.9721 12.4723 35.2796 12.8412 36.6809C13.2291 38.1316 13.598 39.7056 13.948 41.4029C14.298 43.1003 14.6054 44.8175 14.8703 46.5543H15.1115C15.2817 45.9128 15.4284 45.2961 15.5514 44.704C15.6838 44.102 15.8068 43.4753 15.9203 42.824C16.1567 41.5905 16.3743 40.3668 16.573 39.1529C16.7811 37.9293 16.9939 36.755 17.2115 35.63C17.4385 34.505 17.6703 33.4687 17.9068 32.5214C18.1527 31.574 18.4223 30.755 18.7156 30.0642C19.1601 29.0181 19.6852 28.2879 20.2905 27.8734C20.9054 27.4589 21.5912 27.2516 22.348 27.2516H23.2135V28.1546H22.05C21.6054 28.1546 21.2696 28.2533 21.0426 28.4507C20.825 28.6382 20.7162 28.9638 20.7162 29.4276C20.7162 29.7928 20.7683 30.2566 20.8723 30.8191C20.9763 31.3717 21.1135 31.9934 21.2838 32.6842C21.4635 33.3651 21.6574 34.0954 21.8655 34.875C22.0831 35.6546 22.3007 36.4589 22.5183 37.2879C22.7074 38.0675 22.9061 38.8224 23.1142 39.5526C23.3318 40.2829 23.5399 41.0231 23.7385 41.773C23.9466 42.5132 24.15 43.2731 24.3487 44.0526C24.5567 44.8322 24.7507 45.6661 24.9304 46.5543H25.1574C25.2994 45.9128 25.4318 45.2072 25.5547 44.4375C25.6777 43.6678 25.8007 42.9276 25.9237 42.2171C26.3115 39.75 26.7135 37.4901 27.1297 35.4375C27.546 33.375 28.0709 31.6629 28.7048 30.301C29.2723 29.1365 29.9155 28.3372 30.6345 27.9029C31.3628 27.4688 32.252 27.2516 33.3021 27.2516V28.1546H32.9757C32.1054 28.1546 31.4291 28.3471 30.9466 28.7319C30.4642 29.1168 30.048 29.6546 29.698 30.3454ZM34.4655 39.375C35.9412 39.375 37.0858 39.9573 37.8994 41.1217C38.7128 42.2763 39.1196 44.1711 39.1196 46.8059C39.1196 47.4475 39.1291 48.069 39.148 48.6711C39.1669 49.2632 39.2236 49.7913 39.3183 50.2551C39.4129 50.7188 39.5736 51.094 39.8007 51.3801C40.0372 51.6662 40.3588 51.8092 40.7655 51.8092C41.0966 51.8092 41.3568 51.7055 41.546 51.4985C41.7446 51.2811 41.8912 51.0196 41.9858 50.7136C42.0899 50.4081 42.1561 50.0822 42.1844 49.7369C42.2129 49.3915 42.227 49.0808 42.227 48.8042V47.5015H43.1493V48.7748C43.1493 49.3371 43.1115 49.86 43.0358 50.3436C42.9601 50.8273 42.8183 51.2417 42.6102 51.5871C42.4115 51.9324 42.1372 52.2038 41.7871 52.4013C41.4372 52.6083 40.9926 52.7121 40.4534 52.7121C39.6399 52.7121 38.9825 52.4752 38.4811 52.0015C37.9892 51.5279 37.6676 50.8666 37.5162 50.0182H37.2183C37.048 50.7188 36.7027 51.3455 36.1824 51.8978C35.6716 52.4406 34.9811 52.7121 34.1108 52.7121C33.3352 52.7121 32.6777 52.5344 32.1385 52.1792C31.5994 51.8239 31.1547 51.3455 30.8048 50.7434C30.4547 50.1314 30.1993 49.4309 30.0385 48.6417C29.8872 47.8421 29.8115 46.9836 29.8115 46.0658C29.8115 43.9244 30.223 42.2763 31.046 41.1217C31.8689 39.9573 33.0088 39.375 34.4655 39.375ZM34.4655 40.2779C32.621 40.2779 31.6987 42.1875 31.6987 46.0066C31.6987 47.9113 31.9257 49.357 32.3797 50.3436C32.8432 51.3209 33.5385 51.8092 34.4655 51.8092C35.3736 51.8092 36.0595 51.3256 36.523 50.3583C36.9865 49.3816 37.2183 47.9506 37.2183 46.0658C37.2183 44.1711 36.9865 42.7352 36.523 41.7582C36.0595 40.7714 35.3736 40.2779 34.4655 40.2779ZM46.2 41.255H46.4838C46.8716 40.6629 47.3161 40.204 47.8173 39.8783C48.3286 39.5428 48.8912 39.375 49.506 39.375C50.1494 39.375 50.7074 39.5625 51.1805 39.9375C51.6532 40.3125 51.8898 40.9046 51.8898 41.7138C51.8898 42.2961 51.729 42.7796 51.4076 43.1645C51.0952 43.5494 50.6552 43.7418 50.0876 43.7418C49.511 43.7418 49.0755 43.5543 48.7827 43.1793C48.4984 42.8043 48.3568 42.2813 48.3568 41.6102H49.2789C49.2789 41.9161 49.3357 42.1974 49.4492 42.454C49.5723 42.7007 49.7948 42.824 50.1162 42.824C50.3528 42.824 50.5512 42.7402 50.7124 42.5724C50.8822 42.3947 50.9676 42.1184 50.9676 41.7434C50.9676 41.25 50.8114 40.8849 50.4994 40.648C50.1871 40.4013 49.7898 40.2779 49.3076 40.2779C48.6737 40.2779 48.1393 40.4606 47.7038 40.8257C47.2784 41.1908 46.9424 41.6645 46.6967 42.2467C46.5832 42.5329 46.4883 42.8734 46.413 43.2681C46.3467 43.6628 46.2994 44.0526 46.2708 44.4375C46.2427 44.8224 46.2236 45.1776 46.2141 45.5033C46.2045 45.8191 46.2 46.0707 46.2 46.2582C46.2 46.8405 46.2 47.3487 46.2 47.7829C46.2 48.2173 46.2095 48.6464 46.2282 49.0709C46.2472 49.4953 46.2708 49.9443 46.2994 50.418C46.3276 50.8917 46.3607 51.454 46.3989 52.1053H44.5115C44.4358 51.1579 44.3838 50.2205 44.3554 49.2925C44.327 48.3551 44.3129 47.3537 44.3129 46.2879V42.2763H44.0149C43.9581 42.6217 43.7973 42.9523 43.5324 43.2681C43.277 43.5839 42.9554 43.7418 42.5676 43.7418V42.824C42.8608 42.7451 43.1115 42.5921 43.3196 42.3651C43.5372 42.1283 43.7169 41.8717 43.8588 41.5954C44.0007 41.3092 44.1095 41.0231 44.1851 40.7369C44.2703 40.4507 44.3129 40.199 44.3129 39.9819H46.2V41.255ZM53.933 46.2582V42.7944C53.6588 42.9622 53.3514 43.1447 53.0108 43.3421C52.6798 43.5296 52.4056 43.6628 52.1881 43.7418V42.824C52.4623 42.7253 52.7697 42.5625 53.1103 42.3355C53.4603 42.0987 53.7346 41.9013 53.933 41.7434C53.933 41.0921 53.933 40.5247 53.933 40.0411C53.933 39.5576 53.938 39.0987 53.9471 38.6645C53.9566 38.2303 53.9661 37.7911 53.9757 37.3471C53.9852 36.9029 53.9993 36.3849 54.0184 35.7928C54.0561 34.727 54.146 33.6316 54.2876 32.5066C54.4393 31.3816 54.6994 30.3652 55.0681 29.4572C55.3519 28.7073 55.7728 28.051 56.3309 27.4885C56.8984 26.926 57.589 26.6447 58.4027 26.6447C59.2731 26.6447 59.9397 26.9902 60.4033 27.6809C60.8764 28.3619 61.113 29.2796 61.113 30.4342C61.113 30.9967 61.0467 31.5937 60.9141 32.2253C60.791 32.8471 60.6258 33.4687 60.4173 34.0905C60.2189 34.7023 59.9728 35.3092 59.68 35.9112C59.3957 36.5033 59.0979 37.0411 58.7859 37.5247C58.2279 38.3931 57.693 39.1234 57.1827 39.7155C56.6809 40.2977 56.2269 40.7911 55.8205 41.1958V46.2582C55.8205 46.9392 55.8296 47.5854 55.8487 48.1974C55.8677 48.7994 55.9149 49.3522 55.9903 49.8553C56.0948 50.4474 56.2555 50.9211 56.473 51.2763C56.7 51.6316 57.0265 51.8092 57.4519 51.8092C57.7829 51.8092 58.0431 51.7154 58.2324 51.5279C58.4218 51.3308 58.5684 51.0788 58.6724 50.7733C58.7859 50.4673 58.8568 50.1366 58.8854 49.7814C58.9135 49.4261 58.9276 49.1002 58.9276 48.8042V47.5015H59.8643V48.7748C59.8643 49.3371 59.8171 49.86 59.7222 50.3436C59.6373 50.8273 59.4856 51.2417 59.2681 51.5871C59.0602 51.9324 58.7859 52.2038 58.4454 52.4013C58.1144 52.6083 57.693 52.7121 57.1827 52.7121C56.6242 52.7121 56.1229 52.5936 55.6784 52.3568C55.2339 52.1299 54.8743 51.7547 54.6 51.2318C54.3258 50.7188 54.146 50.0969 54.0606 49.3669C53.9757 48.6265 53.933 47.5906 53.933 46.2582ZM58.2324 36.7994C58.9135 35.6842 59.4053 34.6184 59.7081 33.602C60.0205 32.5757 60.1763 31.5592 60.1763 30.5526C60.1763 29.7039 60.0441 29.0033 59.779 28.4507C59.5238 27.8882 59.1169 27.6069 58.5589 27.6069C58.029 27.6069 57.594 27.824 57.2535 28.2582C56.9225 28.6924 56.6573 29.2599 56.4589 29.9605C56.2696 30.6612 56.1279 31.4507 56.033 32.329C55.9481 33.2073 55.8959 34.1003 55.8768 35.0082C55.8582 35.3931 55.8441 36.0444 55.8346 36.9622C55.825 37.88 55.8205 38.8865 55.8205 39.9819C56.246 39.5181 56.6669 39.0197 57.0832 38.4869C57.4991 37.9441 57.8824 37.3816 58.2324 36.7994ZM60.6021 46.0362C60.6021 45.1086 60.7016 44.2352 60.9 43.4161C61.108 42.5971 61.4108 41.8915 61.8081 41.2994C62.2054 40.6974 62.6972 40.2286 63.2838 39.8931C63.88 39.5477 64.5656 39.375 65.3411 39.375C66.5049 39.375 67.427 39.7401 68.1081 40.4704C68.7987 41.1908 69.1438 42.1184 69.1438 43.2533C69.1438 44.023 69.0117 44.7089 68.7465 45.3108C68.4913 45.9029 68.1222 46.4013 67.64 46.8059C67.1573 47.2106 66.5852 47.5162 65.9232 47.7237C65.2607 47.9212 64.5324 48.0197 63.7378 48.0197H62.5741C62.6404 48.4636 62.7303 48.9079 62.8438 49.3522C62.9573 49.7961 63.1181 50.2006 63.3265 50.5658C63.544 50.9211 63.8277 51.2171 64.1778 51.454C64.5279 51.6908 64.9629 51.8092 65.4832 51.8092C66.0885 51.8092 66.5802 51.6761 66.9589 51.4094C67.3371 51.1432 67.635 50.8026 67.8529 50.3882C68.08 49.9737 68.2357 49.51 68.3211 48.997C68.406 48.4835 68.4487 47.9852 68.4487 47.5015H69.3849C69.3849 48.1827 69.3095 48.8387 69.1579 49.4706C69.0162 50.0921 68.7847 50.6496 68.4627 51.1432C68.1413 51.6269 67.7249 52.0067 67.2141 52.2829C66.7033 52.569 66.079 52.7121 65.3411 52.7121C63.8087 52.7121 62.6359 52.1645 61.8222 51.0689C61.009 49.9637 60.6021 48.2864 60.6021 46.0362ZM62.4892 47.102H63.5676C64.6364 47.102 65.5164 46.7911 66.2065 46.1694C66.9067 45.5378 67.2568 44.6151 67.2568 43.4013C67.2568 43.0362 67.2282 42.671 67.1719 42.3059C67.1146 41.9309 67.0107 41.5905 66.8595 41.2845C66.7178 40.9786 66.5144 40.7369 66.2492 40.5592C65.994 40.3717 65.6535 40.2779 65.2276 40.2779C64.6414 40.2779 64.1683 40.4606 63.8087 40.8257C63.4586 41.1908 63.1844 41.6546 62.9859 42.2171C62.7966 42.7698 62.664 43.3915 62.5886 44.0822C62.5223 44.7632 62.4892 45.4145 62.4892 46.0362V47.102ZM79.3033 42.2763H79.0054C78.9487 42.6217 78.7879 42.9523 78.5232 43.2681C78.2676 43.5839 77.9461 43.7418 77.5579 43.7418V42.824C77.8703 42.7253 78.135 42.5625 78.3525 42.3355C78.5795 42.0987 78.7593 41.8471 78.8919 41.5806C79.0336 41.3043 79.138 41.0231 79.2043 40.7369C79.2701 40.4507 79.3033 40.199 79.3033 39.9819H81.1903V50.7733C81.6353 50.3091 81.9849 49.8453 82.2406 49.3816C82.5053 48.9179 82.6378 48.3897 82.6378 47.7976V47.5015H83.5741V47.7682C83.5741 48.6166 83.3471 49.3769 82.893 50.0476C82.439 50.7089 81.8714 51.3455 81.1903 51.9575V52.3127C81.1903 52.9243 81.1812 53.5656 81.1622 54.2369C81.1431 54.918 81.1009 55.594 81.0346 56.2647C80.9683 56.9459 80.8643 57.6019 80.7222 58.2338C80.5901 58.8752 80.4148 59.4573 80.1973 59.9803C79.8758 60.7699 79.4218 61.4212 78.8351 61.9342C78.258 62.4572 77.582 62.7186 76.806 62.7186C76.0114 62.7186 75.3966 62.4524 74.9616 61.9195C74.5262 61.3966 74.3087 60.6515 74.3087 59.6842C74.3087 58.8553 74.4694 58.0808 74.7913 57.3603C75.1223 56.6498 75.5433 55.9838 76.0541 55.3619C76.5744 54.7499 77.142 54.1776 77.7568 53.6447C78.3811 53.1218 78.9913 52.6282 79.5871 52.1645V50.0182H79.3033C79.1235 50.788 78.7643 51.4293 78.2249 51.9423C77.6859 52.4558 76.9717 52.7121 76.0822 52.7121C75.3067 52.7121 74.6588 52.5543 74.1384 52.2384C73.6276 51.9229 73.2117 51.4838 72.8898 50.9211C72.5778 50.3583 72.3508 49.6824 72.2087 48.8932C72.0766 48.1036 72.0103 47.2253 72.0103 46.2582V42.2763H71.7124C71.6552 42.6217 71.4945 42.9523 71.2297 43.2681C70.9741 43.5839 70.6526 43.7418 70.2649 43.7418V42.824C70.5582 42.7451 70.8088 42.5921 71.0168 42.3651C71.2343 42.1283 71.4141 41.8717 71.5562 41.5954C71.6979 41.3092 71.8068 41.0231 71.8822 40.7369C71.9676 40.4507 72.0103 40.199 72.0103 39.9819H73.8973V46.2582C73.8973 46.9392 73.9209 47.61 73.9681 48.2713C74.0154 48.9226 74.1243 49.5147 74.2946 50.0476C74.4744 50.5705 74.7391 50.995 75.0892 51.3209C75.4393 51.6463 75.9124 51.8092 76.5081 51.8092C76.9999 51.8092 77.4208 51.6662 77.7708 51.3801C78.1305 51.094 78.4188 50.6989 78.6367 50.1959C78.8638 49.6923 79.029 49.1102 79.133 48.4489C79.2465 47.7782 79.3033 47.0477 79.3033 46.2582V42.2763ZM75.2313 59.6842C75.2313 60.3947 75.3871 60.9229 75.6994 61.2682C76.0114 61.6235 76.3901 61.8011 76.8346 61.8011C77.3549 61.8011 77.7945 61.6183 78.1541 61.2531C78.5137 60.8978 78.7975 60.3947 79.0054 59.7434C79.2987 58.816 79.469 57.834 79.5162 56.7976C79.5634 55.7716 79.5871 54.8635 79.5871 54.0739V53.2601C79.0667 53.6841 78.5468 54.1232 78.0265 54.5774C77.5061 55.0312 77.0425 55.5149 76.6357 56.0279C76.2289 56.5413 75.8933 57.0989 75.6282 57.7004C75.3634 58.3124 75.2313 58.9737 75.2313 59.6842Z" fill="#FB0000"/>
</svg>
